<?xml version="1.0" encoding="UTF-8" standalone="no"?>
<svg
   viewBox="0 0 840 640"
   version="1.1"
   id="svg1"
   sodipodi:docname="high.svg"
   inkscape:version="1.4.4 (dcaf3e7d9e, 2026-05-05)"
   width="840"
   height="640"
   xmlns:inkscape="http://www.inkscape.org/namespaces/inkscape"
   xmlns:sodipodi="http://sodipodi.sourceforge.net/DTD/sodipodi-0.dtd"
   xmlns="http://www.w3.org/2000/svg"
   xmlns:svg="http://www.w3.org/2000/svg">
  <defs
     id="defs1" />
  <sodipodi:namedview
     id="namedview1"
     pagecolor="#505050"
     bordercolor="#eeeeee"
     borderopacity="1"
     inkscape:showpageshadow="0"
     inkscape:pageopacity="0"
     inkscape:pagecheckerboard="0"
     inkscape:deskcolor="#505050"
     showgrid="false"
     inkscape:zoom="0.6441301"
     inkscape:cx="331.45478"
     inkscape:cy="222.00484"
     inkscape:window-width="1704"
     inkscape:window-height="1380"
     inkscape:window-x="0"
     inkscape:window-y="0"
     inkscape:window-maximized="1"
     inkscape:current-layer="svg1" />
  <!--!Font Awesome Free v7.2.0 by @fontawesome - https://fontawesome.com License - https://fontawesome.com/license/free Copyright 2026 Fonticons, Inc.-->
  <path
     d="m 244.95215,109.98632 c -86.38937,0 -158.234714,62.65964 -172.450687,145.11228 10.169888,-3.2806 21.105252,-5.13961 32.478027,-5.13961 h 17.49659 c 28.97872,0 52.48975,23.51102 52.48975,52.48975 v 104.97948 c 0,28.97873 -23.51103,52.48976 -52.48975,52.48976 H 104.97949 C 47.022065,459.91797 0,412.89591 0,354.93848 V 284.95215 C 0,149.6817 109.6817,40 244.95215,40 380.22261,40 489.90431,149.6817 489.90431,284.95215 V 468.77561 C 489.90431,541.27707 431.07205,600 358.57059,600 l -96.12185,-0.10938 h -34.99317 c -28.97871,0 -52.48974,-23.51103 -52.48974,-52.48974 0,-28.97874 23.51103,-52.48976 52.48975,-52.48976 h 34.99316 c 28.97871,0 52.48974,23.51102 52.48974,52.48976 v 0 h 43.74146 c 43.52275,0 78.73462,-35.21188 78.73462,-78.73463 v -22.85493 c -15.41887,8.967 -33.35287,13.99727 -52.48975,13.99727 h -17.49659 c -28.97871,0 -52.48974,-23.51103 -52.48974,-52.48974 v -104.9795 c 0,-28.97871 23.51103,-52.48974 52.48974,-52.48974 h 17.49659 c 11.37278,0 22.19879,1.74965 32.47803,5.13962 C 403.18688,172.64596 331.45087,109.87697 244.95215,109.87697 Z"
     id="path1"
     style="stroke-width:1.09354" />
  <path
     d="m 696.39649,170.97089 c -10.3,-8.4 -25.4,-6.8 -33.8,3.5 -8.4,10.3 -6.8,25.4 3.5,33.8 32.5,26.4 53.2,66.6 53.2,111.7 0,45.1 -20.7,85.3 -53.2,111.8 -10.3,8.4 -11.8,23.5 -3.5,33.8 8.3,10.3 23.5,11.8 33.8,3.5 43.2,-35.2 70.9,-88.9 70.9,-149 0,-60.1 -27.7,-113.8 -70.9,-149 z m -60.5,74.5 c -10.3,-8.4 -25.4,-6.8 -33.8,3.5 -8.4,10.3 -6.8,25.4 3.5,33.8 10.8,8.8 17.7,22.2 17.7,37.2 0,15 -6.9,28.4 -17.7,37.3 -10.3,8.4 -11.8,23.5 -3.5,33.8 8.3,10.3 23.5,11.8 33.8,3.5 21.5,-17.7 35.4,-44.5 35.4,-74.6 0,-30.1 -13.9,-56.9 -35.4,-74.5 z"
     id="path1-5"
     sodipodi:nodetypes="cscscscscccscscscsc" />
</svg>
