<?xml version="1.0" encoding="UTF-8" standalone="no"?>
<svg
   viewBox="0 0 860 640"
   version="1.1"
   id="svg1"
   sodipodi:docname="max-ed.svg"
   inkscape:version="1.4.4 (dcaf3e7d9e, 2026-05-05)"
   width="860"
   height="640"
   xmlns:inkscape="http://www.inkscape.org/namespaces/inkscape"
   xmlns:sodipodi="http://sodipodi.sourceforge.net/DTD/sodipodi-0.dtd"
   xmlns="http://www.w3.org/2000/svg"
   xmlns:svg="http://www.w3.org/2000/svg">
  <defs
     id="defs1" />
  <sodipodi:namedview
     id="namedview1"
     pagecolor="#505050"
     bordercolor="#eeeeee"
     borderopacity="1"
     inkscape:showpageshadow="0"
     inkscape:pageopacity="0"
     inkscape:pagecheckerboard="0"
     inkscape:deskcolor="#505050"
     showgrid="false"
     inkscape:zoom="0.45546876"
     inkscape:cx="257.97598"
     inkscape:cy="827.71868"
     inkscape:window-width="3420"
     inkscape:window-height="1380"
     inkscape:window-x="0"
     inkscape:window-y="0"
     inkscape:window-maximized="1"
     inkscape:current-layer="svg1"
     showguides="true" />
  <!--!Font Awesome Free v7.2.0 by @fontawesome - https://fontawesome.com License - https://fontawesome.com/license/free Copyright 2026 Fonticons, Inc.-->
  <path
     d="m 244.95215,109.98633 c -86.38938,0 -158.234713,62.65962 -172.450688,145.11228 10.16989,-3.28061 21.105254,-5.13963 32.478028,-5.13963 h 17.49658 c 28.97873,0 52.48975,23.51104 52.48975,52.48976 v 104.97948 c 0,28.97873 -23.51102,52.48976 -52.48975,52.48976 H 104.97949 C 47.022066,459.91798 0,412.89591 0,354.93848 V 284.95215 C 0,149.68171 109.68171,40 244.95215,40 380.22261,40 489.90432,149.68171 489.90432,284.95215 V 468.77562 C 489.90432,541.27708 431.07205,600 358.57059,600 l -96.12185,-0.10937 h -34.99316 c -28.97872,0 -52.48976,-23.51103 -52.48976,-52.48976 0,-28.97873 23.51104,-52.48975 52.48976,-52.48975 h 34.99316 c 28.97872,0 52.48974,23.51102 52.48974,52.48975 v 0 h 43.74145 c 43.52276,0 78.73463,-35.21186 78.73463,-78.73462 v -22.85492 c -15.41886,8.967 -33.35286,13.99727 -52.48974,13.99727 h -17.4966 c -28.9787,0 -52.48974,-23.51103 -52.48974,-52.48975 v -104.9795 c 0,-28.97872 23.51104,-52.48974 52.48974,-52.48974 h 17.4966 c 11.37276,0 22.19878,1.74965 32.47803,5.13961 -14.21597,-82.34327 -85.95197,-145.11225 -172.4507,-145.11225 z"
     id="path1"
     style="stroke-width:1.09354" />
  <path
     d="m 753.6,96.470891 c -10.3,-8.4 -25.4,-6.8 -33.8,3.5 -8.4,10.299999 -6.8,25.399999 3.5,33.799999 54.2,44 88.7,111 88.7,186.2 0,75.2 -34.5,142.2 -88.7,186.3 -10.3,8.4 -11.8,23.5 -3.5,33.8 8.3,10.3 23.5,11.8 33.8,3.5 64.9,-52.9 106.4,-133.4 106.4,-223.6 0,-90.2 -41.5,-170.8 -106.4,-223.499999 z m -60.5,74.499999 c -10.3,-8.4 -25.4,-6.8 -33.8,3.5 -8.4,10.3 -6.8,25.4 3.5,33.8 32.5,26.4 53.2,66.6 53.2,111.7 0,45.1 -20.7,85.3 -53.2,111.8 -10.3,8.4 -11.8,23.5 -3.5,33.8 8.3,10.3 23.5,11.8 33.8,3.5 43.2,-35.2 70.9,-88.9 70.9,-149 0,-60.1 -27.7,-113.8 -70.9,-149 z m -60.5,74.5 c -10.3,-8.4 -25.4,-6.8 -33.8,3.5 -8.4,10.3 -6.8,25.4 3.5,33.8 10.8,8.8 17.7,22.2 17.7,37.2 0,15 -6.9,28.4 -17.7,37.3 -10.3,8.4 -11.8,23.5 -3.5,33.8 8.3,10.3 23.5,11.8 33.8,3.5 21.5,-17.7 35.4,-44.5 35.4,-74.6 0,-30.1 -13.9,-56.9 -35.4,-74.5 z"
     id="path1-5" />
</svg>
