<?xml version="1.0" encoding="UTF-8" standalone="no"?>
<svg
   viewBox="0 0 640 640"
   version="1.1"
   id="svg1"
   sodipodi:docname="very-high.svg"
   inkscape:version="1.4.4 (dcaf3e7d9e, 2026-05-05)"
   xmlns:inkscape="http://www.inkscape.org/namespaces/inkscape"
   xmlns:sodipodi="http://sodipodi.sourceforge.net/DTD/sodipodi-0.dtd"
   xmlns="http://www.w3.org/2000/svg"
   xmlns:svg="http://www.w3.org/2000/svg">
  <defs
     id="defs1" />
  <sodipodi:namedview
     id="namedview1"
     pagecolor="#505050"
     bordercolor="#eeeeee"
     borderopacity="1"
     inkscape:showpageshadow="0"
     inkscape:pageopacity="0"
     inkscape:pagecheckerboard="0"
     inkscape:deskcolor="#505050"
     showgrid="false"
     inkscape:zoom="0.45546875"
     inkscape:cx="730.01715"
     inkscape:cy="393.00171"
     inkscape:window-width="1178"
     inkscape:window-height="684"
     inkscape:window-x="0"
     inkscape:window-y="0"
     inkscape:window-maximized="1"
     inkscape:current-layer="svg1" />
  <!--!Font Awesome Free v7.2.0 by @fontawesome - https://fontawesome.com License - https://fontawesome.com/license/free Copyright 2026 Fonticons, Inc.-->
  <path
     d="m 501.6,96.5 c -10.3,-8.4 -25.4,-6.8 -33.8,3.5 -8.4,10.3 -6.8,25.4 3.5,33.8 54.2,44 88.7,111 88.7,186.2 0,75.2 -34.5,142.2 -88.7,186.3 -10.3,8.4 -11.8,23.5 -3.5,33.8 8.3,10.3 23.5,11.8 33.8,3.5 C 566.5,490.7 608,410.2 608,320 608,229.8 566.5,149.2 501.6,96.5 Z M 441.1,171 c -10.3,-8.4 -25.4,-6.8 -33.8,3.5 -8.4,10.3 -6.8,25.4 3.5,33.8 32.5,26.4 53.2,66.6 53.2,111.7 0,45.1 -20.7,85.3 -53.2,111.8 -10.3,8.4 -11.8,23.5 -3.5,33.8 8.3,10.3 23.5,11.8 33.8,3.5 43.2,-35.2 70.9,-88.9 70.9,-149 0,-60.1 -27.7,-113.8 -70.9,-149 z m -60.5,74.5 c -10.3,-8.4 -25.4,-6.8 -33.8,3.5 -8.4,10.3 -6.8,25.4 3.5,33.8 10.8,8.8 17.7,22.2 17.7,37.2 0,15 -6.9,28.4 -17.7,37.3 -10.3,8.4 -11.8,23.5 -3.5,33.8 8.3,10.3 23.5,11.8 33.8,3.5 21.5,-17.7 35.4,-44.5 35.4,-74.6 0,-30.1 -13.9,-56.9 -35.4,-74.5 z M 48,416 h 48 l 134.1,119.2 c 6.4,5.7 14.6,8.8 23.1,8.8 19.2,0 34.8,-15.6 34.8,-34.8 V 130.8 C 288,111.6 272.4,96 253.2,96 c -8.5,0 -16.7,3.1 -23.1,8.8 L 96,224 H 48 C 21.5,224 0,245.5 0,272 v 96 c 0,26.5 21.5,48 48,48 z"
     id="path1" />
</svg>
