<?xml version="1.0" encoding="UTF-8" standalone="no"?>
<svg
   viewBox="0 0 640 640"
   version="1.1"
   id="svg1"
   sodipodi:docname="mute-mine.svg"
   inkscape:version="1.4.4 (dcaf3e7d9e, 2026-05-05)"
   xmlns:inkscape="http://www.inkscape.org/namespaces/inkscape"
   xmlns:sodipodi="http://sodipodi.sourceforge.net/DTD/sodipodi-0.dtd"
   xmlns="http://www.w3.org/2000/svg"
   xmlns:svg="http://www.w3.org/2000/svg">
  <defs
     id="defs1" />
  <sodipodi:namedview
     id="namedview1"
     pagecolor="#505050"
     bordercolor="#eeeeee"
     borderopacity="1"
     inkscape:showpageshadow="0"
     inkscape:pageopacity="0"
     inkscape:pagecheckerboard="0"
     inkscape:deskcolor="#505050"
     inkscape:zoom="0.9578125"
     inkscape:cx="412.92007"
     inkscape:cy="300.68515"
     inkscape:window-width="1178"
     inkscape:window-height="1380"
     inkscape:window-x="0"
     inkscape:window-y="0"
     inkscape:window-maximized="1"
     inkscape:current-layer="svg1" />
  <!--!Font Awesome Free v7.2.0 by @fontawesome - https://fontawesome.com License - https://fontawesome.com/license/free Copyright 2026 Fonticons, Inc.-->
  <path
     d="m 48,416 h 48 l 134.1,119.2 c 6.4,5.7 14.6,8.8 23.1,8.8 19.2,0 34.8,-15.6 34.8,-34.8 V 130.8 c 0,-19.2 -15.6,-34.799999 -34.8,-34.799999 -8.5,0 -16.7,3.099999 -23.1,8.799999 L 96,224 H 48 C 21.5,224 0,245.5 0,272 v 96 c 0,26.5 21.5,48 48,48 z"
     id="path1"
     sodipodi:nodetypes="sccssssccssss"
     inkscape:label="megaphone" />
  <path
     d="m 363.15,239.1 c -9.4,9.4 -9.4,24.6 0,33.9 l 47,47 -47,47 c -9.4,9.4 -9.4,24.6 0,33.9 9.4,9.3 24.6,9.4 33.9,0 l 47,-47 47,47 c 9.4,9.4 24.6,9.4 33.9,0 9.3,-9.4 9.4,-24.6 0,-33.9 l -47,-47 47,-47 c 9.4,-9.4 9.4,-24.6 0,-33.9 -9.4,-9.3 -24.6,-9.4 -33.9,0 l -47,47 -47,-47 c -9.4,-9.4 -24.6,-9.4 -33.9,0 z"
     id="path1-2"
     inkscape:label="cross" />
</svg>
