<?xml version="1.0" encoding="UTF-8" standalone="no"?>
<!-- Uploaded to: SVG Repo, www.svgrepo.com, Generator: SVG Repo Mixer Tools -->

<svg
   fill="#24283b"
   width="800px"
   height="800px"
   viewBox="0 0 32 32"
   version="1.1"
   id="svg1"
   sodipodi:docname="arch-linux.svg"
   inkscape:version="1.4.4 (dcaf3e7d9e, 2026-05-05)"
   xmlns:inkscape="http://www.inkscape.org/namespaces/inkscape"
   xmlns:sodipodi="http://sodipodi.sourceforge.net/DTD/sodipodi-0.dtd"
   xmlns="http://www.w3.org/2000/svg"
   xmlns:svg="http://www.w3.org/2000/svg">
  <defs
     id="defs1" />
  <sodipodi:namedview
     id="namedview1"
     pagecolor="#505050"
     bordercolor="#eeeeee"
     borderopacity="1"
     inkscape:showpageshadow="0"
     inkscape:pageopacity="0"
     inkscape:pagecheckerboard="0"
     inkscape:deskcolor="#505050"
     inkscape:zoom="0.99525279"
     inkscape:cx="367.74576"
     inkscape:cy="390.85547"
     inkscape:window-width="1704"
     inkscape:window-height="1336"
     inkscape:window-x="0"
     inkscape:window-y="0"
     inkscape:window-maximized="1"
     inkscape:current-layer="svg1" />
  <path
     d="M 15.991737,0.12303962 C 14.566084,3.5894104 13.710061,5.8609138 12.125417,9.228933 c 0.970792,1.024321 2.165855,2.218142 4.102173,3.563676 -2.083727,-0.855868 -3.504115,-1.71069 -4.568616,-2.598993 C 9.6299988,14.405994 6.44913,20.394978 0,31.914671 5.0729646,29.004929 8.9993002,27.211581 12.662406,26.525213 12.50868,25.854538 12.416023,25.130503 12.421288,24.366709 l 0.0053,-0.15799 c 0.08213,-3.232001 1.77101,-5.710671 3.77261,-5.542218 2.001599,0.168454 3.558866,2.921252 3.482003,6.152207 -0.01685,0.604758 -0.08739,1.187543 -0.208478,1.732662 3.625201,0.703109 7.512579,2.490179 12.513945,5.362255 -0.987638,-1.80381 -1.86472,-3.43289 -2.709161,-4.980358 -1.321414,-1.01909 -2.703897,-2.348929 -5.517297,-3.787583 1.936319,0.501175 3.317749,1.078729 4.398044,1.7222 C 19.608514,9.0594334 18.923063,6.9553369 15.989631,0.12199333 Z"
     id="path1"
     sodipodi:nodetypes="ccccccccscccccccc" />
</svg>
